<svg fill="#fff" width="20px" height="20px" viewBox="-2.4 -2.4 28.80 28.80" xmlns="http://www.w3.org/2000/svg" stroke="#fff">

<g id="SVGRepo_bgCarrier" stroke-width="0"/>

<g id="SVGRepo_tracerCarrier" stroke-linecap="round" stroke-linejoin="round" stroke="#CCCCCC" stroke-width="0.576"/>

<g id="SVGRepo_iconCarrier">

<path d="M23,4V15a1,1,0,0,1-1,1H4.414l3.293,3.293a1,1,0,1,1-1.414,1.414l-5-5a1,1,0,0,1,0-1.416l5-5a1,1,0,0,1,1.414,1.414L4.414,14H21V5H12a1,1,0,0,1,0-2H22A1,1,0,0,1,23,4Z"/>

</g>

</svg>